<?xml version="1.0" standalone="no"?><!DOCTYPE svg PUBLIC "-//W3C//DTD SVG 1.1//EN" "http://www.w3.org/Graphics/SVG/1.1/DTD/svg11.dtd"><svg t="1715149290221" class="icon" viewBox="0 0 1024 1024" version="1.1" xmlns="http://www.w3.org/2000/svg" p-id="5898" xmlns:xlink="http://www.w3.org/1999/xlink" width="200" height="200"><path d="M544.768 854.4256a339.8656 339.8656 0 0 1-240.8448-99.5328 336.7936 336.7936 0 0 1-72.96-108.032 336.4864 336.4864 0 0 1-26.6752-132.2496 338.2272 338.2272 0 0 1 99.584-240.2816 339.8656 339.8656 0 0 1 144.5376-85.76 413.5936 413.5936 0 0 0-49.5616 196.7616c0 203.4176 146.2784 372.736 339.456 408.8832a338.432 338.432 0 0 1-193.536 60.2112z m267.4176-129.1776a339.8656 339.8656 0 0 1-237.312-99.5328 336.896 336.896 0 0 1-72.96-108.032 336.5376 336.5376 0 0 1-26.6752-132.2496 338.1248 338.1248 0 0 1 99.6864-240.1792l7.2704-7.0656a22.528 22.528 0 0 0-14.2336-38.912 410.112 410.112 0 0 0-55.1936 0.512C297.472 116.2752 128 295.68 128 514.6112c0 229.7856 186.5728 416 416.768 416a415.488 415.488 0 0 0 338.2784-173.1072 22.528 22.528 0 0 0-21.3504-35.4304 327.8336 327.8336 0 0 1-45.9776 3.1744h-3.584z" fill="#666666" p-id="5899"></path></svg>